<svg xmlns="http://www.w3.org/2000/svg" xmlns:xlink="http://www.w3.org/1999/xlink" viewBox="0 0 417.4 84.51"><defs><style>.cls-1{fill:url(#Gradiente_sem_nome_2);}.cls-2{fill:url(#Gradiente_sem_nome_2-2);}.cls-3{fill:#1d1d1b;}</style><linearGradient id="Gradiente_sem_nome_2" y1="27.34" x2="60.78" y2="27.34" gradientUnits="userSpaceOnUse"><stop offset="0" stop-color="#d2bf8f"/><stop offset="0.8" stop-color="#d0a64f"/><stop offset="1" stop-color="#cfa03f"/></linearGradient><linearGradient id="Gradiente_sem_nome_2-2" x1="5.62" y1="48.08" x2="67.7" y2="48.08" xlink:href="#Gradiente_sem_nome_2"/></defs><g id="Camada_2" data-name="Camada 2"><g id="Camada_1-2" data-name="Camada 1"><polygon class="cls-1" points="60.78 0 54.4 9.55 41.93 9.55 40.53 11.64 22.72 38.3 11.78 54.67 0 54.67 28.75 11.64 30.14 9.55 36.53 0 60.78 0"/><path class="cls-2" d="M55.12,54.67a23.48,23.48,0,0,1,.72,5.84A24,24,0,0,1,15.27,77.88l-.69-.69-9-9,.78-1.18L8.15,64.4l6.51-9.73L26.37,37.13l17-25.49H67.7L47.31,42.17A23.81,23.81,0,0,1,55.12,54.67Z"/><path class="cls-3" d="M101.84,36.6a12.2,12.2,0,0,1,5.85-1.36,13.12,13.12,0,0,1,7.11,2,13.82,13.82,0,0,1,5,5.68,19,19,0,0,1,1.84,8.58,19.14,19.14,0,0,1-1.84,8.61,14,14,0,0,1-5,5.75,13.06,13.06,0,0,1-7.11,2,12.2,12.2,0,0,1-5.85-1.33A10.41,10.41,0,0,1,97.91,63v4.43H88.19V25.35h9.72V40.18A10,10,0,0,1,101.84,36.6Zm7.92,9.18a6.66,6.66,0,0,0-5-2.07,6.58,6.58,0,0,0-4.92,2.1,8,8,0,0,0-2,5.74,8,8,0,0,0,2,5.74,6.82,6.82,0,0,0,9.87,0,8,8,0,0,0,2-5.77A7.82,7.82,0,0,0,109.76,45.78Z"/><path class="cls-3" d="M125.69,30.89a5.15,5.15,0,0,1,0-7.5,5.87,5.87,0,0,1,4.18-1.51A5.78,5.78,0,0,1,134,23.39a5.15,5.15,0,0,1,0,7.5,5.82,5.82,0,0,1-4.12,1.5A5.9,5.9,0,0,1,125.69,30.89Zm9,4.8V67.41H125V35.69Z"/><path class="cls-3" d="M178.35,43.45a13.39,13.39,0,0,1,5.43-5.6,16,16,0,0,1,8-2,14.86,14.86,0,0,1,9.2,2.83A13.69,13.69,0,0,1,206,45.94V36.3h1.11V67.84H206V58.2A13.69,13.69,0,0,1,201,65.42a14.86,14.86,0,0,1-9.2,2.83,16,16,0,0,1-8-2,13.36,13.36,0,0,1-5.43-5.61,18.11,18.11,0,0,1-1.93-8.61A18.18,18.18,0,0,1,178.35,43.45Zm25.84.71a13.42,13.42,0,0,0-5.08-5.32,14.3,14.3,0,0,0-7.33-1.9,15,15,0,0,0-7.51,1.81A12.35,12.35,0,0,0,179.34,44a17.49,17.49,0,0,0-1.75,8.09,17.52,17.52,0,0,0,1.75,8.09,12.35,12.35,0,0,0,4.93,5.23,15,15,0,0,0,7.51,1.81,14.2,14.2,0,0,0,7.33-1.9A13.42,13.42,0,0,0,204.19,60,16.36,16.36,0,0,0,206,52.07,16.36,16.36,0,0,0,204.19,44.16Z"/><path class="cls-3" d="M237.07,39q3.57,3.45,3.57,10.4v18.4h-1.11V49.32q0-6.18-3.1-9.43A11.16,11.16,0,0,0,228,36.65a11.67,11.67,0,0,0-9,3.65q-3.39,3.64-3.39,10.78V67.84h-1.17V36.3h1.17v8.29A11.08,11.08,0,0,1,220,37.91,13.57,13.57,0,0,1,228,35.6,12.58,12.58,0,0,1,237.07,39Z"/><path class="cls-3" d="M249.83,43.45a13.48,13.48,0,0,1,5.44-5.6,16,16,0,0,1,8-2,14.88,14.88,0,0,1,9.2,2.83,13.69,13.69,0,0,1,5,7.22V36.3h1.11V67.84h-1.11V58.2a13.69,13.69,0,0,1-5,7.22,14.88,14.88,0,0,1-9.2,2.83,16,16,0,0,1-8-2,13.44,13.44,0,0,1-5.44-5.61,18.23,18.23,0,0,1-1.92-8.61A18.3,18.3,0,0,1,249.83,43.45Zm25.85.71a13.42,13.42,0,0,0-5.08-5.32,14.3,14.3,0,0,0-7.33-1.9,15,15,0,0,0-7.51,1.81A12.29,12.29,0,0,0,250.83,44a17.49,17.49,0,0,0-1.76,8.09,17.52,17.52,0,0,0,1.76,8.09,12.29,12.29,0,0,0,4.93,5.23,15,15,0,0,0,7.51,1.81,14.2,14.2,0,0,0,7.33-1.9A13.42,13.42,0,0,0,275.68,60a16.36,16.36,0,0,0,1.84-7.91A16.36,16.36,0,0,0,275.68,44.16Z"/><path class="cls-3" d="M287.07,24.62V67.84H285.9V24.62Z"/><path class="cls-3" d="M321.38,36.3l-18,46.38h-1.23L307.89,68,294.33,36.3h1.17l13,30.31L320.21,36.3Z"/><path class="cls-3" d="M331.11,37.47V59.55a11.7,11.7,0,0,0,.64,4.38,3.88,3.88,0,0,0,2,2.13,10,10,0,0,0,3.92.61H341v1.17h-3.45c-2.73,0-4.68-.62-5.87-1.87s-1.78-3.39-1.78-6.42V37.47H324.8V36.3h5.14V28.24h1.17V36.3H341v1.17Z"/><path class="cls-3" d="M348.74,27.8a1.54,1.54,0,0,1-.44-1.14,1.56,1.56,0,0,1,.44-1.14,1.49,1.49,0,0,1,1.08-.44,1.47,1.47,0,0,1,1.08.44,1.7,1.7,0,0,1,0,2.28,1.47,1.47,0,0,1-1.08.44A1.49,1.49,0,0,1,348.74,27.8Zm1.67,8.5V67.84h-1.17V36.3Z"/><path class="cls-3" d="M360.57,43.42a13.45,13.45,0,0,1,5.4-5.6,15.73,15.73,0,0,1,7.83-1.93A15.21,15.21,0,0,1,383.64,39a12.51,12.51,0,0,1,4.64,8h-1.16a11,11,0,0,0-4.39-7.36,14.57,14.57,0,0,0-8.93-2.69,14.83,14.83,0,0,0-7,1.67,12.47,12.47,0,0,0-5.11,5,16.74,16.74,0,0,0-1.93,8.41,16.74,16.74,0,0,0,1.93,8.41,12.47,12.47,0,0,0,5.11,5.05,14.83,14.83,0,0,0,7,1.67,14.57,14.57,0,0,0,8.93-2.69,11,11,0,0,0,4.39-7.36h1.16a12.51,12.51,0,0,1-4.64,8,15.21,15.21,0,0,1-9.84,3.07A15.73,15.73,0,0,1,366,66.32a13.42,13.42,0,0,1-5.4-5.61,18.06,18.06,0,0,1-2-8.64A18.13,18.13,0,0,1,360.57,43.42Z"/><path class="cls-3" d="M399.26,66.15a8.47,8.47,0,0,1-3.71-6.37h1.17a7.26,7.26,0,0,0,3.13,5.46c1.85,1.31,4.46,2,7.85,2a9.78,9.78,0,0,0,4.53-1,7.43,7.43,0,0,0,3-2.65,6.62,6.62,0,0,0,1.05-3.6,4.85,4.85,0,0,0-1.2-3.41,7.84,7.84,0,0,0-3-2A49.3,49.3,0,0,0,407.24,53a41.35,41.35,0,0,1-5.58-1.75A9,9,0,0,1,398,48.56a7.23,7.23,0,0,1-1.49-4.78,6.61,6.61,0,0,1,1.28-3.92A9.1,9.1,0,0,1,401.37,37a11.48,11.48,0,0,1,5.05-1.08,11.77,11.77,0,0,1,7.71,2.4,8.81,8.81,0,0,1,3.15,6.65h-1.17a8,8,0,0,0-2.65-5.75q-2.49-2.25-7-2.25a10.18,10.18,0,0,0-4.44.94,7.87,7.87,0,0,0-3.13,2.51,5.67,5.67,0,0,0-1.14,3.39,6.14,6.14,0,0,0,1.35,4.14,8.11,8.11,0,0,0,3.3,2.34,49.85,49.85,0,0,0,5.23,1.63c2.21.63,4,1.19,5.22,1.7a8.12,8.12,0,0,1,3.24,2.31A5.93,5.93,0,0,1,417.4,60a7.39,7.39,0,0,1-1.29,4.24,8.74,8.74,0,0,1-3.5,3,11.22,11.22,0,0,1-5,1.08A15,15,0,0,1,399.26,66.15Z"/><path class="cls-3" d="M162.77,67.86a6.1,6.1,0,0,1-4.45-1.69A5.63,5.63,0,0,1,156.58,62V13.22l1.35,2.12-7.06,5.23a5.3,5.3,0,0,1-3.39,1.06,5.58,5.58,0,0,1-4.06-1.74,5.68,5.68,0,0,1-1.74-4.16,5.8,5.8,0,0,1,3-5l13.93-9.28a6.28,6.28,0,0,1,2.17-1,10,10,0,0,1,2.28-.29,6,6,0,0,1,4.45,1.69,5.83,5.83,0,0,1,1.64,4.21V62a5.57,5.57,0,0,1-1.79,4.21A6.41,6.41,0,0,1,162.77,67.86Z"/></g></g></svg>